<svg width="19" height="19" viewBox="0 0 19 19" fill="none" xmlns="http://www.w3.org/2000/svg">
<path d="M18.7146 11.7982C17.4457 16.8875 12.2912 19.9847 7.20128 18.7156C2.1135 17.4468 -0.983778 12.2919 0.285633 7.2029C1.55387 2.11303 6.70846 -0.984542 11.7969 0.284279C16.8864 1.55312 19.9834 6.7086 18.7146 11.7982Z" fill="#F7931A"/>
<path d="M6.37508 11.1C6.32343 11.2283 6.19252 11.4206 5.89741 11.3476C5.90783 11.3627 5.13981 11.1585 5.13981 11.1585L4.62238 12.3516L5.97876 12.6898C6.2311 12.753 6.47841 12.8192 6.72184 12.8815L6.29047 14.6135L7.33161 14.8732L7.7588 13.1597C8.04322 13.2369 8.3193 13.3081 8.58945 13.3752L8.16373 15.0807L9.20606 15.3405L9.63741 13.6118C11.4148 13.9482 12.7513 13.8125 13.3139 12.2049C13.7672 10.9106 13.2913 10.1639 12.3562 9.67707C13.0372 9.52003 13.5502 9.07205 13.687 8.1467C13.8761 6.88262 12.9137 6.20307 11.5976 5.74974L12.0245 4.03737L10.9822 3.77761L10.5666 5.44484C10.2926 5.37656 10.0111 5.31213 9.73151 5.2483L10.1501 3.57006L9.10836 3.3103L8.68116 5.02207C8.45434 4.97041 8.23171 4.91933 8.01557 4.86561L8.01675 4.86026L6.57929 4.50134L6.30199 5.61461C6.30199 5.61461 7.07536 5.79185 7.05903 5.80283C7.48119 5.90822 7.55748 6.18756 7.54473 6.40905L6.37508 11.1ZM11.3055 11.4862C10.9834 12.7806 8.80409 12.0808 8.09753 11.9054L8.66991 9.61088C9.37645 9.78721 11.6422 10.1363 11.3055 11.4862ZM11.6279 8.12801C11.334 9.30541 9.52013 8.70721 8.93174 8.56056L9.45067 6.47946C10.0391 6.62612 11.934 6.89983 11.6279 8.12801Z" fill="#F5F5F5"/>
</svg>
