<svg width="24" height="25" viewBox="0 0 24 25" fill="none" xmlns="http://www.w3.org/2000/svg">
<path d="M8.05467 7.5586V3.10547C8.05467 2.7716 7.78307 2.5 7.4492 2.5H2.60544C2.27157 2.5 1.99997 2.7716 1.99997 3.10547V4.30969C1.99997 4.47153 2.1311 4.60266 2.29294 4.60266C2.45478 4.60266 2.58591 4.47153 2.58591 4.30969V3.10547C2.58591 3.09473 2.5947 3.08594 2.60544 3.08594H7.4492C7.45994 3.08594 7.46873 3.09473 7.46873 3.10547V7.5586C7.46873 7.56935 7.45994 7.57814 7.4492 7.57814H2.60544C2.5947 7.57814 2.58591 7.56935 2.58591 7.5586V5.70505C2.58591 5.54321 2.45478 5.41208 2.29294 5.41208C2.1311 5.41208 1.99997 5.54321 1.99997 5.70505V7.5586C1.99997 7.89247 2.27157 8.16407 2.60544 8.16407H7.4492C7.78307 8.16407 8.05467 7.89247 8.05467 7.5586Z" fill="#605D6E"/>
<path d="M3.66013 4.375H5.22263C5.38447 4.375 5.5156 4.24387 5.5156 4.08203C5.5156 3.9202 5.38447 3.78906 5.22263 3.78906H3.66013C3.49829 3.78906 3.36716 3.9202 3.36716 4.08203C3.36716 4.24387 3.49829 4.375 3.66013 4.375Z" fill="#605D6E"/>
<path d="M3.66013 5.625H6.39451C6.55634 5.625 6.68748 5.49387 6.68748 5.33203C6.68748 5.1702 6.55634 5.03906 6.39451 5.03906H3.66013C3.49829 5.03906 3.36716 5.1702 3.36716 5.33203C3.36716 5.49387 3.49829 5.625 3.66013 5.625Z" fill="#605D6E"/>
<path d="M3.66013 6.875H6.39451C6.55634 6.875 6.68748 6.74387 6.68748 6.58203C6.68748 6.4202 6.55634 6.28906 6.39451 6.28906H3.66013C3.49829 6.28906 3.36716 6.4202 3.36716 6.58203C3.36716 6.74387 3.49829 6.875 3.66013 6.875Z" fill="#605D6E"/>
<path d="M9.5781 8.16407H14.4219C14.7557 8.16407 15.0273 7.89247 15.0273 7.5586V3.10547C15.0273 2.7716 14.7557 2.5 14.4219 2.5H9.5781C9.24423 2.5 8.97263 2.7716 8.97263 3.10547V7.5586C8.97263 7.89247 9.24423 8.16407 9.5781 8.16407ZM9.55856 3.10547C9.55856 3.09473 9.56735 3.08594 9.5781 3.08594H14.4219C14.4326 3.08594 14.4414 3.09473 14.4414 3.10547V7.5586C14.4414 7.56935 14.4326 7.57814 14.4219 7.57814H9.5781C9.56735 7.57814 9.55856 7.56935 9.55856 7.5586V3.10547Z" fill="#605D6E"/>
<path d="M10.6328 4.375H12.1953C12.3572 4.375 12.4883 4.24387 12.4883 4.08203C12.4883 3.9202 12.3572 3.78906 12.1953 3.78906H10.6328C10.471 3.78906 10.3398 3.9202 10.3398 4.08203C10.3398 4.24387 10.471 4.375 10.6328 4.375Z" fill="#605D6E"/>
<path d="M10.6328 5.625H13.3672C13.529 5.625 13.6602 5.49387 13.6602 5.33203C13.6602 5.1702 13.529 5.03906 13.3672 5.03906H10.6328C10.471 5.03906 10.3398 5.1702 10.3398 5.33203C10.3398 5.49387 10.471 5.625 10.6328 5.625Z" fill="#605D6E"/>
<path d="M10.6328 6.875H13.3672C13.529 6.875 13.6602 6.74387 13.6602 6.58203C13.6602 6.4202 13.529 6.28906 13.3672 6.28906H10.6328C10.471 6.28906 10.3398 6.4202 10.3398 6.58203C10.3398 6.74387 10.471 6.875 10.6328 6.875Z" fill="#605D6E"/>
<path d="M21.3945 2.5H16.5508C16.2169 2.5 15.9453 2.7716 15.9453 3.10547V7.5586C15.9453 7.89247 16.2169 8.16407 16.5508 8.16407H21.3945C21.7284 8.16407 22 7.89247 22 7.5586V3.10547C22 2.7716 21.7284 2.5 21.3945 2.5ZM21.4141 7.5586C21.4141 7.56935 21.4053 7.57814 21.3945 7.57814H16.5508C16.54 7.57814 16.5313 7.56935 16.5313 7.5586V3.10547C16.5313 3.09473 16.54 3.08594 16.5508 3.08594H21.3945C21.4053 3.08594 21.4141 3.09473 21.4141 3.10547V7.5586Z" fill="#605D6E"/>
<path d="M17.6055 4.375H19.168C19.3298 4.375 19.4609 4.24387 19.4609 4.08203C19.4609 3.9202 19.3298 3.78906 19.168 3.78906H17.6055C17.4436 3.78906 17.3125 3.9202 17.3125 4.08203C17.3125 4.24387 17.4436 4.375 17.6055 4.375Z" fill="#605D6E"/>
<path d="M20.3398 5.03906H17.6055C17.4436 5.03906 17.3125 5.1702 17.3125 5.33203C17.3125 5.49387 17.4436 5.625 17.6055 5.625H20.3398C20.5017 5.625 20.6328 5.49387 20.6328 5.33203C20.6328 5.1702 20.5017 5.03906 20.3398 5.03906Z" fill="#605D6E"/>
<path d="M20.3398 6.28906H17.6055C17.4436 6.28906 17.3125 6.4202 17.3125 6.58203C17.3125 6.74387 17.4436 6.875 17.6055 6.875H20.3398C20.5017 6.875 20.6328 6.74387 20.6328 6.58203C20.6328 6.4202 20.5017 6.28906 20.3398 6.28906Z" fill="#605D6E"/>
<path d="M12 9.19922C11.8382 9.19922 11.707 9.33035 11.707 9.49219V12.9924L11.3945 12.758C11.265 12.6609 11.0814 12.6872 10.9844 12.8166C10.8873 12.946 10.9136 13.1297 11.043 13.2267L11.8242 13.8127C11.8763 13.8517 11.9382 13.8713 12 13.8713C12.0618 13.8713 12.1237 13.8517 12.1758 13.8127L12.957 13.2267C13.0865 13.1297 13.1127 12.946 13.0156 12.8166C12.9186 12.6872 12.7349 12.6609 12.6055 12.758L12.293 12.9924V9.49219C12.293 9.33035 12.1618 9.19922 12 9.19922Z" fill="#605D6E"/>
<path d="M8.22619 12.9912L7.91541 12.7581C7.78592 12.661 7.60232 12.6873 7.50525 12.8167C7.40818 12.9461 7.43443 13.1298 7.56385 13.2268L8.3451 13.8128C8.39717 13.8518 8.45904 13.8714 8.52088 13.8714C8.58272 13.8714 8.64459 13.8518 8.69666 13.8128L9.47791 13.2268C9.60733 13.1298 9.63358 12.9461 9.53651 12.8167C9.43947 12.6873 9.25576 12.661 9.12635 12.7581L8.81248 12.9935C8.79889 12.8209 8.76752 12.613 8.70104 12.3955C8.47361 11.6514 7.95303 11.1508 7.1956 10.9476C6.26646 10.6983 5.64705 10.1088 5.45158 9.28767C5.41412 9.13033 5.2563 9.03306 5.09872 9.07053C4.94134 9.10799 4.84407 9.26599 4.88157 9.42338C5.12923 10.4636 5.89712 11.2058 7.04381 11.5135C7.96127 11.7597 8.18068 12.5206 8.22619 12.9912Z" fill="#605D6E"/>
<path d="M18.9013 9.07036C18.7438 9.03266 18.5859 9.13009 18.5484 9.28751C18.3529 10.1086 17.7336 10.6981 16.8044 10.9474C16.047 11.1506 15.5264 11.6513 15.299 12.3953C15.2325 12.6128 15.2011 12.8208 15.1875 12.9933L14.8737 12.7579C14.7441 12.6609 14.5606 12.6871 14.4635 12.8165C14.3664 12.9459 14.3927 13.1296 14.5221 13.2267L15.3034 13.8126C15.3554 13.8517 15.4173 13.8712 15.4791 13.8712C15.541 13.8712 15.6028 13.8517 15.6549 13.8126L16.4362 13.2267C16.5656 13.1296 16.5918 12.9459 16.4948 12.8165C16.3977 12.6871 16.2141 12.6609 16.0846 12.7579L15.7738 12.991C15.8193 12.5204 16.0388 11.7595 16.9563 11.5133C18.1029 11.2057 18.8709 10.4634 19.1185 9.42321C19.1559 9.26583 19.0587 9.10782 18.9013 9.07036Z" fill="#605D6E"/>
<path d="M16.6094 14.7656H14.9871C14.8253 14.7656 14.6941 14.8968 14.6941 15.0586C14.6941 15.2204 14.8253 15.3516 14.9871 15.3516H16.6094C16.7709 15.3516 16.9023 15.483 16.9023 15.6445C16.9023 15.8061 16.7709 15.9375 16.6094 15.9375H7.3906C7.22903 15.9375 7.09763 15.8061 7.09763 15.6445C7.09763 15.483 7.22903 15.3516 7.3906 15.3516H13.5772C13.739 15.3516 13.8702 15.2204 13.8702 15.0586C13.8702 14.8968 13.739 14.7656 13.5772 14.7656H7.3906C6.90599 14.7656 6.51169 15.1599 6.51169 15.6445C6.51169 16.1291 6.90599 16.5234 7.3906 16.5234H7.937L10.5351 19.0121V21.8573C10.5351 22.2117 10.8235 22.5 11.1778 22.5H12.8222C13.1765 22.5 13.4648 22.2117 13.4648 21.8573V19.0121L16.063 16.5234H16.6094C17.094 16.5234 17.4883 16.1291 17.4883 15.6445C17.4883 15.1599 17.094 14.7656 16.6094 14.7656ZM12.8789 21.8574C12.8789 21.8886 12.8535 21.9141 12.8222 21.9141H11.1778C11.1465 21.9141 11.1211 21.8886 11.1211 21.8574V19.1797H12.8789V21.8574ZM13.0545 18.5938H10.9454L8.78404 16.5234H15.2159L13.0545 18.5938Z" fill="#605D6E"/>
</svg>
