<svg width="24" height="25" viewBox="0 0 24 25" fill="none" xmlns="http://www.w3.org/2000/svg">
<g clip-path="url(#clip0_5_406)">
<path d="M15.2774 11.6836C15.1432 11.6836 15.0249 11.7288 14.9238 11.822C14.8215 11.9138 14.7711 12.0308 14.7711 12.173C14.7711 12.3153 14.8215 12.4323 14.9238 12.524C15.0249 12.6158 15.1432 12.6623 15.2774 12.6623C15.4155 12.6623 15.5312 12.6158 15.6255 12.5213C15.7198 12.427 15.7663 12.3113 15.7663 12.173C15.7663 12.0386 15.7185 11.9231 15.6229 11.8273C15.5272 11.7316 15.4116 11.6836 15.2774 11.6836Z" fill="#605D6E"/>
<path d="M15.2774 13.509C15.1432 13.509 15.0262 13.5568 14.9266 13.6526C14.827 13.7484 14.7764 13.8654 14.7764 14.0036C14.7764 14.134 14.8242 14.2508 14.92 14.3546C15.0196 14.4517 15.1392 14.4995 15.2774 14.4995C15.4116 14.4995 15.5272 14.4517 15.6227 14.3546C15.7185 14.2589 15.7663 14.1446 15.7663 14.0102C15.7663 13.8719 15.7185 13.7537 15.6227 13.6552C15.5272 13.5583 15.4116 13.509 15.2774 13.509Z" fill="#605D6E"/>
<path d="M9.95966 11.1823H9.68994L9.69525 10.6638C9.69525 10.5376 9.65149 10.4338 9.56232 10.3527C9.47461 10.265 9.37244 10.2212 9.25818 10.2212C9.13458 10.2212 9.03095 10.2637 8.94452 10.3501C8.85809 10.4365 8.81433 10.5414 8.81433 10.6638V11.1823H8.67078C8.55927 11.1823 8.4635 11.2195 8.38385 11.2953C8.30273 11.3698 8.263 11.4628 8.263 11.5745C8.263 11.6782 8.30017 11.7699 8.37726 11.8497C8.45435 11.9309 8.55267 11.9708 8.67078 11.9708H8.82092V13.8892C8.82092 13.9544 8.83154 14.0129 8.85278 14.0648C8.87274 14.1166 8.9046 14.1631 8.94727 14.2056C9.03223 14.2935 9.13458 14.3372 9.25818 14.3372C9.38434 14.3372 9.48926 14.2935 9.57166 14.2056C9.65406 14.1166 9.69525 14.0115 9.69525 13.8892L9.68994 11.9774H9.95435C10.066 11.9774 10.1603 11.9374 10.2387 11.8591C10.3171 11.7807 10.357 11.6875 10.357 11.5798C10.357 11.4683 10.3185 11.3738 10.2415 11.298C10.1657 11.2209 10.0714 11.1823 9.95966 11.1823Z" fill="#605D6E"/>
<path d="M7.58915 11.1823H7.31815L7.32474 10.6638C7.32474 10.5376 7.2797 10.4338 7.19199 10.3527C7.10428 10.265 7.00192 10.2212 6.88767 10.2212C6.76407 10.2212 6.65915 10.2637 6.57401 10.3501C6.48776 10.4365 6.44382 10.5414 6.44382 10.6638V11.1823H6.30026C6.18875 11.1823 6.09299 11.2195 6.01205 11.2953C5.93222 11.3698 5.89102 11.4628 5.89102 11.5745C5.89102 11.6782 5.92966 11.7699 6.00674 11.8497C6.08383 11.9309 6.1807 11.9708 6.30026 11.9708H6.44913V13.8892C6.44913 13.9544 6.45975 14.0129 6.48099 14.0648C6.50223 14.1166 6.53427 14.1631 6.57675 14.2056C6.66043 14.2935 6.76407 14.3372 6.88767 14.3372C7.01383 14.3372 7.11875 14.2935 7.20133 14.2056C7.28354 14.1166 7.32474 14.0115 7.32474 13.8892L7.31815 11.9774H7.58384C7.69425 11.9774 7.78983 11.9374 7.8682 11.8591C7.94657 11.7807 7.98649 11.6875 7.98649 11.5798C7.98649 11.4683 7.94803 11.3738 7.87095 11.298C7.79386 11.2209 7.70084 11.1823 7.58915 11.1823Z" fill="#605D6E"/>
<path d="M4.40165 11.1252C4.15171 11.1252 3.92594 11.1836 3.72251 11.3033L3.59506 11.3898V10.2318C3.59506 10.1055 3.55112 10.0016 3.46341 9.922C3.37845 9.83301 3.27481 9.78906 3.1525 9.78906C3.02908 9.78906 2.92398 9.83301 2.83627 9.922C2.74728 10.0097 2.70352 10.1133 2.70352 10.2318V13.9C2.70352 14.0195 2.74728 14.1234 2.83627 14.2111C2.92398 14.2988 3.02908 14.344 3.1525 14.344C3.27481 14.344 3.37973 14.3001 3.46616 14.2136C3.55258 14.1272 3.59506 14.0236 3.59506 13.9V12.3857C3.59506 12.2434 3.64688 12.1224 3.75052 12.0226C3.85416 11.923 3.97904 11.8737 4.12516 11.8737C4.2634 11.8737 4.38169 11.9243 4.4813 12.0266C4.58109 12.1277 4.63144 12.25 4.63144 12.3923V13.9C4.63144 14.0236 4.67539 14.1287 4.7631 14.2164C4.85209 14.3054 4.95701 14.3493 5.0806 14.3493C5.20694 14.3493 5.31058 14.3054 5.39152 14.2164C5.47922 14.1287 5.52317 14.0236 5.52317 13.9V12.2473C5.52317 11.9177 5.43271 11.6584 5.25327 11.4709C5.02604 11.2394 4.74314 11.1252 4.40165 11.1252Z" fill="#605D6E"/>
<path d="M13.7758 11.8792C13.712 11.7741 13.6337 11.6745 13.5407 11.5814C13.2497 11.2901 12.9016 11.1453 12.4949 11.1453C12.1974 11.1453 11.9262 11.2196 11.6805 11.37C11.5463 11.0362 10.858 10.9459 10.858 11.5919V15.1551C10.858 15.2868 10.9017 15.3917 10.9894 15.4728C11.0784 15.5607 11.1835 15.6045 11.3071 15.6045C11.4333 15.6045 11.5344 15.558 11.6168 15.4728C11.703 15.3851 11.7495 15.284 11.7495 15.1617V13.9254C11.9767 14.0475 12.2252 14.1101 12.4949 14.1101C12.9135 14.1101 13.2643 13.9679 13.55 13.682C13.8344 13.3975 13.9766 13.0465 13.9766 12.6277C13.9766 12.4481 13.9486 12.2805 13.8915 12.1238C13.8649 12.0401 13.825 11.9575 13.7758 11.8792ZM12.4803 13.2605C12.1203 13.2605 11.8292 12.9694 11.8292 12.6105C11.8292 12.2514 12.1203 11.959 12.4803 11.959C12.839 11.959 13.1301 12.2514 13.1301 12.6105C13.1301 12.9694 12.8392 13.2605 12.4803 13.2605Z" fill="#605D6E"/>
<path d="M21.9582 7.65339H21.1882C20.343 6.05415 19.095 4.70118 17.5637 3.72834C15.9045 2.67438 13.9841 2.11719 12.0101 2.11719C11.2143 2.11719 10.424 2.20709 9.661 2.38452C9.40886 2.4433 9.25212 2.69507 9.31072 2.94702C9.36931 3.19916 9.62108 3.35572 9.87322 3.2973C10.5666 3.13599 11.2855 3.05414 12.0101 3.05414C14.0969 3.05414 16.0593 3.72559 17.6545 4.91706H15.5085C14.4699 4.91706 13.6249 5.76246 13.6249 6.80158C13.6249 7.10243 13.699 7.39356 13.8318 7.65321H3.90763C4.61973 6.46375 5.58909 5.43763 6.74541 4.6587C6.96001 4.51423 7.01677 4.22309 6.8723 4.00849C6.72783 3.79389 6.43669 3.73712 6.22191 3.8816C4.79789 4.8407 3.63114 6.14075 2.83188 7.65321H2.04032C0.915316 7.65339 -3.05176e-05 8.5691 -3.05176e-05 9.69466V15.1963C-3.05176e-05 16.3225 0.915316 17.239 2.04032 17.239H2.77585C3.28562 18.2318 3.94956 19.1323 4.74076 19.9092C4.74131 19.9096 4.74168 19.9101 4.74223 19.9105C5.24668 20.4058 5.80278 20.8509 6.40336 21.2376C8.07512 22.3139 10.0138 22.8829 12.0099 22.8829C14.0059 22.8829 15.9446 22.3139 17.6164 21.2376C19.1598 20.2439 20.4088 18.8657 21.2439 17.239H21.9582C23.0839 17.239 24 16.3225 24 15.1963V9.69466C24 8.5691 23.0841 7.65339 21.9582 7.65339ZM14.562 6.80158C14.562 6.27918 14.9866 5.85419 15.5085 5.85419H18.7275C19.2534 6.38886 19.7197 6.99128 20.1141 7.65339H15.095C14.7733 7.49501 14.562 7.1623 14.562 6.80158ZM8.68285 17.239C9.11223 17.3357 9.42076 17.718 9.42076 18.1624C9.42076 18.6848 8.99614 19.1098 8.47411 19.1098H5.27452C4.72611 18.5533 4.24381 17.9262 3.84391 17.239H8.68285ZM23.0629 15.1963C23.0629 15.806 22.5674 16.3018 21.9582 16.3018H16.7164C16.4577 16.3018 16.2479 16.5117 16.2479 16.7704C16.2479 17.0291 16.4577 17.239 16.7164 17.239H20.176C18.4988 20.1209 15.3715 21.9457 12.0101 21.9457C9.93877 21.9457 7.95665 21.2528 6.34752 20.0469H8.47429C9.51287 20.0469 10.3579 19.2015 10.3579 18.1624C10.3579 17.8293 10.2704 17.5135 10.116 17.239H12.9721C13.2308 17.239 13.4405 17.0291 13.4405 16.7704C13.4405 16.5117 13.2308 16.3018 12.9721 16.3018H8.72753C8.72679 16.3018 8.72606 16.3018 8.72515 16.3018H2.04032C1.43204 16.3018 0.937105 15.806 0.937105 15.1963V9.69466C0.937105 9.08583 1.43204 8.59034 2.04032 8.59034H3.11606H3.11771H3.11899H14.994C14.9949 8.59034 14.9958 8.59053 14.9969 8.59053C14.9974 8.59053 14.9982 8.59034 14.9987 8.59034H20.901H20.9022H20.9039H21.9582C22.5674 8.59034 23.0629 9.08565 23.0629 9.69466V15.1963Z" fill="#605D6E"/>
<path d="M20.0396 10.0775L18.4876 13.9357C18.4689 13.981 18.457 14.0289 18.457 14.078C18.457 14.6671 19.1878 14.7575 19.3645 14.2988L20.9231 10.4311C20.9431 10.3873 20.9537 10.3368 20.9537 10.2837C20.9537 9.66937 20.2083 9.61884 20.0396 10.0775Z" fill="#605D6E"/>
<path d="M18.934 10.1693C18.934 9.55367 18.1873 9.5046 18.0198 9.96181L16.468 13.8215C16.448 13.8667 16.4374 13.9145 16.4374 13.9638C16.4374 14.5514 17.1682 14.6418 17.3449 14.1831L18.9034 10.3156C18.9234 10.2716 18.934 10.2213 18.934 10.1693Z" fill="#605D6E"/>
<path d="M7.97497 3.91313C8.04528 3.91313 8.11687 3.8972 8.18407 3.86369L8.19213 3.85966C8.42357 3.74394 8.51732 3.4625 8.4016 3.23106C8.28588 2.99961 8.00445 2.90568 7.773 3.02158L7.76494 3.02543C7.5335 3.14134 7.43975 3.42259 7.55547 3.65403C7.63768 3.81828 7.80303 3.91313 7.97497 3.91313Z" fill="#605D6E"/>
<path d="M14.8535 16.3018H14.8442C14.5854 16.3018 14.3756 16.5116 14.3756 16.7703C14.3756 17.0291 14.5854 17.2389 14.8442 17.2389H14.8535C15.1122 17.2389 15.3221 17.0291 15.3221 16.7703C15.3221 16.5116 15.1122 16.3018 14.8535 16.3018Z" fill="#605D6E"/>
</g>
<defs>
<clipPath id="clip0_5_406">
<rect width="24" height="24" fill="white" transform="translate(0 0.5)"/>
</clipPath>
</defs>
</svg>
