<svg width="20" height="19" viewBox="0 0 20 19" fill="none" xmlns="http://www.w3.org/2000/svg">
<path d="M15 3C15 2.17157 15.6716 1.5 16.5 1.5H17.5C18.3284 1.5 19 2.17157 19 3V16C19 16.8284 18.3284 17.5 17.5 17.5H16.5C15.6716 17.5 15 16.8284 15 16V3Z" stroke="#605D6E" stroke-width="1.5" stroke-linecap="round" stroke-linejoin="round"/>
<path d="M8 8C8 7.17157 8.67157 6.5 9.5 6.5H10.5C11.3284 6.5 12 7.17157 12 8V16C12 16.8284 11.3284 17.5 10.5 17.5H9.5C8.67157 17.5 8 16.8284 8 16V8Z" stroke="#605D6E" stroke-width="1.5" stroke-linecap="round" stroke-linejoin="round"/>
<path d="M1 14C1 13.1716 1.67157 12.5 2.5 12.5H3.5C4.32843 12.5 5 13.1716 5 14V16C5 16.8284 4.32843 17.5 3.5 17.5H2.5C1.67157 17.5 1 16.8284 1 16V14Z" stroke="#605D6E" stroke-width="1.5" stroke-linecap="round" stroke-linejoin="round"/>
</svg>
