<svg width="24" height="25" viewBox="0 0 24 25" fill="none" xmlns="http://www.w3.org/2000/svg">
<path d="M19.7295 21.3238H4.27053C3.01864 21.3238 2 20.3052 2 19.0533V5.9468C2 4.69491 3.01864 3.67627 4.27053 3.67627H19.7295C20.9814 3.67627 22 4.69491 22 5.9468V19.0533C22 20.3052 20.9814 21.3238 19.7295 21.3238ZM4.27053 4.3526C3.39153 4.3526 2.67633 5.0678 2.67633 5.9468V19.0533C2.67633 19.9323 3.39153 20.6475 4.27053 20.6475H19.7295C20.6085 20.6475 21.3237 19.9323 21.3237 19.0533V5.9468C21.3237 5.0678 20.6085 4.3526 19.7295 4.3526H4.27053Z" fill="#605D6E"/>
<path d="M18.9478 16.1609H13.634C13.4472 16.1609 13.2958 16.0096 13.2958 15.8228C13.2958 15.6362 13.4472 15.4846 13.634 15.4846H18.9478C19.1345 15.4846 19.286 15.6362 19.286 15.8228C19.286 16.0096 19.1346 16.1609 18.9478 16.1609Z" fill="#605D6E"/>
<path d="M18.9478 18.606H13.634C13.4472 18.606 13.2958 18.4547 13.2958 18.2679C13.2958 18.0812 13.4472 17.9297 13.634 17.9297H18.9478C19.1345 17.9297 19.286 18.0812 19.286 18.2679C19.286 18.4547 19.1346 18.606 18.9478 18.606Z" fill="#605D6E"/>
<path d="M18.9478 11.2711H13.634C13.4472 11.2711 13.2958 11.1197 13.2958 10.9329C13.2958 10.7463 13.4472 10.5947 13.634 10.5947H18.9478C19.1345 10.5947 19.286 10.7463 19.286 10.9329C19.286 11.1197 19.1346 11.2711 18.9478 11.2711Z" fill="#605D6E"/>
<path d="M18.9478 13.7159H13.634C13.4472 13.7159 13.2958 13.5645 13.2958 13.3777C13.2958 13.1911 13.4472 13.0396 13.634 13.0396H18.9478C19.1345 13.0396 19.286 13.1911 19.286 13.3777C19.286 13.5645 19.1346 13.7159 18.9478 13.7159Z" fill="#605D6E"/>
<path d="M21.6618 8.2044H2.33816C2.15134 8.2044 2 8.05306 2 7.86624C2 7.67942 2.15134 7.52808 2.33816 7.52808H21.6618C21.8487 7.52808 22 7.67942 22 7.86624C22 8.05306 21.8487 8.2044 21.6618 8.2044Z" fill="#605D6E"/>
<path d="M6.87509 6.999C6.29481 6.999 5.82266 6.52704 5.82266 5.94677C5.82266 5.36649 6.29481 4.89453 6.87509 4.89453C7.45536 4.89453 7.92732 5.36649 7.92732 5.94677C7.92732 6.52704 7.45536 6.999 6.87509 6.999ZM6.87509 5.57086C6.6677 5.57086 6.49899 5.73956 6.49899 5.94677C6.49899 6.15397 6.6677 6.32267 6.87509 6.32267C7.08229 6.32267 7.25099 6.15397 7.25099 5.94677C7.25099 5.73956 7.08229 5.57086 6.87509 5.57086Z" fill="#605D6E"/>
<path d="M4.43846 6.999C3.85838 6.999 3.38623 6.52704 3.38623 5.94677C3.38623 5.36649 3.85838 4.89453 4.43846 4.89453C5.01874 4.89453 5.49089 5.36649 5.49089 5.94677C5.49089 6.52704 5.01874 6.999 4.43846 6.999ZM4.43846 5.57086C4.23126 5.57086 4.06256 5.73956 4.06256 5.94677C4.06256 6.15397 4.23126 6.32267 4.43846 6.32267C4.64585 6.32267 4.81456 6.15397 4.81456 5.94677C4.81456 5.73956 4.64585 5.57086 4.43846 5.57086Z" fill="#605D6E"/>
<path d="M9.31148 6.999C8.7312 6.999 8.25925 6.52704 8.25925 5.94677C8.25925 5.36649 8.7312 4.89453 9.31148 4.89453C9.89176 4.89453 10.3639 5.36649 10.3639 5.94677C10.3639 6.52704 9.89176 6.999 9.31148 6.999ZM9.31148 5.57086C9.10409 5.57086 8.93558 5.73956 8.93558 5.94677C8.93558 6.15397 9.10428 6.32267 9.31148 6.32267C9.51887 6.32267 9.68758 6.15397 9.68758 5.94677C9.68758 5.73956 9.51887 5.57086 9.31148 5.57086Z" fill="#605D6E"/>
<path d="M11.0821 18.6057H4.94687C4.76005 18.6057 4.6087 18.4544 4.6087 18.2676V10.9329C4.6087 10.7463 4.76005 10.5947 4.94687 10.5947H11.0821C11.269 10.5947 11.4203 10.7463 11.4203 10.9329V18.2676C11.4203 18.4544 11.269 18.6057 11.0821 18.6057ZM5.28503 17.9294H10.744V11.2711H5.28503V17.9294Z" fill="#605D6E"/>
</svg>
