<svg width="20" height="20" viewBox="0 0 20 20" fill="none" xmlns="http://www.w3.org/2000/svg">
<path d="M8.95041 4.39498C9.40725 3.57028 10.593 3.57028 11.0498 4.39498L12.3328 6.71109C12.4707 6.96001 12.7081 7.13839 12.9856 7.20157L15.5708 7.7902C16.4492 7.99021 16.8022 9.0508 16.2188 9.73732L14.399 11.8787C14.2239 12.0848 14.1397 12.353 14.1657 12.6221L14.4347 15.416C14.5236 16.3388 13.5769 17.0096 12.7357 16.6198L10.4205 15.5471C10.1539 15.4235 9.84637 15.4235 9.57971 15.5471L7.26451 16.6198C6.4233 17.0096 5.47668 16.3388 5.56554 15.416L5.83458 12.6221C5.86049 12.353 5.7763 12.0848 5.6012 11.8787L3.78146 9.73732C3.19806 9.0508 3.55104 7.99021 4.42947 7.7902L7.01468 7.20157C7.29214 7.13839 7.52955 6.96001 7.66743 6.71109L8.95041 4.39498Z" stroke="#F5F5F5" stroke-width="1.5"/>
</svg>
