<svg width="16" height="16" viewBox="0 0 16 16" fill="none" xmlns="http://www.w3.org/2000/svg">
<path d="M13 12.0069H13.8333C14.7542 12.0069 15.5 11.2712 15.5 10.363V7.89726C15.5 6.98904 14.7542 6.25343 13.8333 6.25343H13C12.54 6.25343 12.1667 6.62165 12.1667 7.07535V11.1849C12.1667 11.6386 12.54 12.0069 13 12.0069ZM13 12.0069L13 12.8288C13 13.737 12.2542 14.4726 11.3333 14.4726H9.5625M13.4167 6.25342V5.84247C13.4167 2.89178 10.9917 0.5 8 0.5C5.00833 0.5 2.58333 2.89178 2.58333 5.84247V6.25342M9.5625 14.4726C9.5625 13.9055 9.09583 13.4452 8.52083 13.4452H7.47917C6.90417 13.4452 6.4375 13.9055 6.4375 14.4726C6.4375 15.0397 6.90417 15.5 7.47917 15.5H8.52083C9.09583 15.5 9.5625 15.0397 9.5625 14.4726ZM3 12.0069H2.16667C1.24583 12.0069 0.5 11.2712 0.5 10.363V7.89726C0.5 6.98904 1.24583 6.25343 2.16667 6.25343H3C3.46 6.25343 3.83333 6.62165 3.83333 7.07535V11.1849C3.83333 11.6386 3.46 12.0069 3 12.0069Z" stroke="#F5F5F5" stroke-linecap="round" stroke-linejoin="round"/>
</svg>
