<svg width="19" height="19" viewBox="0 0 19 19" fill="none" xmlns="http://www.w3.org/2000/svg">
<g clip-path="url(#clip0_47_3094)">
<path d="M9.5 19C14.7467 19 19 14.7467 19 9.5C19 4.25329 14.7467 0 9.5 0C4.25329 0 0 4.25329 0 9.5C0 14.7467 4.25329 19 9.5 19Z" fill="#59AF99"/>
<path d="M10.4861 8.33052V7.20857H13.0387V5.43872H5.95459V7.20857H8.51389V8.33052C6.36974 8.43407 4.76044 8.86442 4.76044 9.37552C4.76044 9.88662 6.36784 10.3189 8.51389 10.4205V14.1255H10.4861V10.4205C12.6302 10.3179 14.2395 9.88757 14.2395 9.37552C14.2395 8.86347 12.635 8.43407 10.4861 8.33052ZM9.49999 10.0937C7.17819 10.0937 5.29624 9.73462 5.29624 9.30237C5.29624 8.93092 6.66709 8.61837 8.51199 8.53477V9.80207C8.82929 9.81632 9.15894 9.82487 9.49809 9.82487C9.83724 9.82487 10.1688 9.81632 10.4842 9.80207V8.53477C12.3291 8.61837 13.6999 8.93092 13.6999 9.30237C13.7037 9.73937 11.8218 10.0937 9.49999 10.0937Z" fill="#F5F5F5"/>
</g>
<defs>
<clipPath id="clip0_47_3094">
<rect width="19" height="19" fill="white"/>
</clipPath>
</defs>
</svg>
