<svg width="25" height="24" viewBox="0 0 25 24" fill="none" xmlns="http://www.w3.org/2000/svg">
<path d="M3.5 5C3.5 5.78216 3.5 13.223 3.5 17.5041C3.5 19.161 4.84315 20.5 6.5 20.5H18.5C20.1569 20.5 21.5 19.1572 21.5 17.5004C21.5 15.7899 21.5 13.9069 21.5 13.5C21.5 12.9377 21.5 11.1347 21.5 9.49959C21.5 7.84273 20.1569 6.5 18.5 6.5H5C4.172 6.5 3.5 5.828 3.5 5ZM3.5 5C3.5 4.172 4.172 3.5 5 3.5H17.5M16.5 13.2512C16.4988 13.1114 16.6122 13 16.7495 13C16.8887 13 16.9982 13.1122 17 13.2477L17 13.25C17 13.3881 16.8881 13.5 16.75 13.5C16.6123 13.5 16.5006 13.3887 16.5 13.2512ZM16.5 13.2512L16.5 13.2523M16.5 13.2512L16.5 13.25" stroke="#F5F5F5" stroke-width="1.5" stroke-linecap="round" stroke-linejoin="round"/>
</svg>
